<?xml version="1.0" encoding="UTF-8"?>
<svg xmlns="http://www.w3.org/2000/svg" width="64" height="64" viewBox="0 0 64 64" fill="none">
  <path d="M25 35C30.5228 35 35 30.5228 35 25C35 19.4772 30.5228 15 25 15C19.4772 15 15 19.4772 15 25C15 30.5228 19.4772 35 25 35Z" fill="#FF4010" fill-opacity="0.25" stroke="#FF4010" stroke-width="2" stroke-linecap="round" stroke-linejoin="round"></path>
  <path d="M41.819 28.9492C43.3945 29.5366 44.7965 30.5118 45.8953 31.7845C46.994 33.0573 47.7541 34.5866 48.1052 36.231C48.4564 37.8754 48.3872 39.5817 47.9041 41.1923C47.421 42.8029 46.5396 44.2656 45.3414 45.4452C44.1432 46.6249 42.6669 47.4834 41.049 47.9413C39.4311 48.3992 37.7238 48.4417 36.0851 48.065C34.4465 47.6882 32.9292 46.9044 31.6737 45.7859C30.4182 44.6674 29.4651 43.2504 28.9023 41.6659" stroke="#FF4010" stroke-width="2" stroke-linecap="round" stroke-linejoin="round"></path>
</svg>
